<?xml version="1.0" standalone="no"?>
<!DOCTYPE svg PUBLIC "-//W3C//DTD SVG 20010904//EN"
 "http://www.w3.org/TR/2001/REC-SVG-20010904/DTD/svg10.dtd">
<svg version="1.0" xmlns="http://www.w3.org/2000/svg"
 width="1024.000000pt" height="1024.000000pt" viewBox="0 0 1024.000000 1024.000000"
 preserveAspectRatio="xMidYMid meet">
<metadata>
Created by potrace 1.14, written by Peter Selinger 2001-2017
</metadata>
<g transform="translate(0.000000,1024.000000) scale(0.100000,-0.100000)"
fill="#000000" stroke="none">
<path d="M3896 8963 c-3 -3 -22 -7 -43 -8 -48 -4 -121 -13 -153 -20 -14 -3
-40 -7 -59 -9 -53 -7 -283 -67 -312 -82 -15 -7 -29 -10 -32 -7 -4 3 -12 1 -19
-4 -7 -5 -35 -17 -63 -27 -143 -50 -502 -235 -559 -288 -11 -10 -25 -18 -32
-18 -7 0 -14 -3 -16 -7 -1 -5 -21 -21 -43 -38 -57 -42 -56 -41 -104 -82 -185
-160 -406 -394 -494 -523 -58 -85 -106 -160 -123 -190 -10 -19 -22 -37 -25
-40 -15 -11 -169 -344 -189 -405 -7 -22 -15 -44 -19 -50 -3 -5 -6 -13 -7 -17
-1 -5 -3 -10 -4 -13 -1 -3 -3 -8 -4 -12 -1 -5 -10 -35 -20 -68 -10 -33 -20
-68 -22 -78 -2 -10 -6 -27 -9 -37 -3 -10 -8 -27 -10 -37 -2 -10 -13 -63 -24
-118 -11 -55 -23 -115 -26 -134 -3 -19 -7 -37 -9 -40 -18 -30 -29 -395 -13
-418 4 -6 3 -14 -3 -18 -6 -3 -7 -11 -4 -17 4 -6 8 -37 10 -69 3 -68 13 -181
19 -224 3 -16 7 -46 9 -65 4 -29 14 -78 30 -145 2 -5 6 -28 11 -50 4 -22 10
-44 14 -50 3 -5 7 -19 8 -29 6 -34 95 -290 109 -311 7 -11 14 -24 15 -30 7
-45 150 -327 185 -366 8 -8 14 -19 14 -23 0 -4 11 -22 25 -40 14 -18 25 -38
25 -44 0 -6 4 -12 8 -14 5 -1 22 -23 39 -48 17 -25 40 -54 50 -65 11 -11 24
-28 29 -37 22 -41 220 -247 320 -334 105 -92 368 -284 389 -284 3 0 24 -12 48
-27 116 -75 352 -181 517 -232 41 -13 82 -26 90 -29 8 -3 22 -6 30 -8 8 -1 33
-6 55 -12 47 -13 100 -24 135 -28 14 -1 26 -3 28 -4 4 -4 16 -6 77 -14 33 -4
74 -9 90 -11 168 -23 563 -23 705 -1 25 4 59 9 75 11 39 5 86 15 107 21 10 3
30 7 45 10 124 21 538 176 551 206 2 5 11 8 21 8 9 0 21 4 27 9 5 5 41 26 79
46 84 46 280 169 300 189 8 8 30 24 50 36 19 12 35 26 35 31 0 5 4 9 9 9 21 0
301 271 386 373 22 27 45 54 50 60 15 17 88 118 100 138 6 9 38 63 73 120 67
111 202 378 202 401 0 8 4 18 9 23 12 12 106 292 121 358 5 26 13 64 16 85 3
20 7 39 9 42 2 3 7 33 10 65 4 33 9 68 11 78 9 49 17 251 16 402 -1 234 -6
293 -37 490 -12 80 -95 369 -113 400 -4 6 -7 15 -8 21 -6 41 -148 339 -216
454 -12 19 -26 44 -32 55 -14 24 -109 168 -116 175 -3 3 -18 23 -35 45 -16 22
-34 45 -40 51 -5 6 -21 26 -35 45 -35 47 -256 268 -305 304 -22 17 -44 35 -50
41 -5 6 -28 24 -50 40 -22 16 -42 31 -45 34 -13 14 -165 113 -240 158 -128 75
-317 168 -380 187 -14 4 -30 11 -35 15 -6 5 -64 25 -130 45 -104 33 -165 48
-266 69 -13 3 -33 7 -44 9 -11 3 -42 8 -70 11 -27 4 -61 9 -75 11 -14 2 -47 6
-73 9 -27 3 -53 8 -58 11 -5 4 -9 1 -9 -6 0 -8 -4 -8 -12 -1 -13 10 -462 15
-472 5z m859 -1887 c33 -3 89 -8 125 -11 36 -3 83 -8 105 -11 22 -2 61 -6 88
-9 109 -11 184 -21 412 -50 171 -22 219 -52 231 -143 8 -64 4 -198 -11 -332
-6 -54 -17 -180 -20 -235 -2 -22 -4 -40 -5 -40 -1 0 -3 -22 -5 -50 -3 -49 -10
-108 -20 -190 -3 -22 -7 -62 -9 -90 -3 -27 -7 -66 -10 -85 -2 -19 -8 -57 -11
-85 -25 -190 -223 -270 -351 -141 -47 47 -45 33 -48 343 0 100 -4 185 -8 189
-15 14 -102 -42 -228 -147 -10 -8 -31 -24 -45 -35 -33 -24 -183 -139 -210
-162 -62 -51 -210 -143 -247 -153 -68 -19 -138 -17 -178 4 -62 34 -120 72
-120 80 0 4 -4 7 -9 7 -6 0 -48 28 -94 63 -47 34 -111 80 -142 102 -31 22 -79
57 -106 78 -27 20 -52 37 -57 37 -5 0 -17 9 -27 20 -10 11 -24 20 -32 20 -7 0
-13 3 -13 8 0 14 -68 44 -87 38 -28 -9 -57 -36 -383 -359 -162 -161 -308 -301
-324 -311 -37 -23 -151 -25 -193 -2 -127 67 -153 202 -61 319 65 83 54 70 293
324 114 120 454 462 496 499 57 48 139 69 212 52 37 -8 167 -90 314 -200 39
-29 81 -60 93 -68 20 -14 122 -90 145 -108 30 -23 197 -132 204 -132 7 0 414
303 446 332 8 7 28 24 46 38 69 55 115 118 97 135 -4 4 -82 16 -133 20 -16 2
-30 4 -30 5 0 1 -16 3 -35 5 -115 9 -189 16 -215 21 -17 4 -43 7 -60 9 -16 1
-30 4 -30 5 0 1 -13 4 -29 6 -81 14 -179 96 -162 139 3 8 2 15 -2 15 -13 0 -1
122 15 153 21 42 35 54 85 77 37 16 61 19 163 15 66 -2 147 -6 180 -9z"/>
<path d="M679 8445 c-13 -25 -27 -45 -30 -45 -3 0 -6 -6 -6 -12 -1 -7 -13 -44
-28 -83 -29 -75 -36 -185 -14 -212 6 -7 9 -13 5 -13 -12 0 21 -54 53 -87 83
-87 183 -91 297 -12 l42 28 7 -37 c8 -46 40 -111 67 -134 36 -31 128 -48 148
-28 3 3 14 10 25 16 29 16 156 176 166 209 8 28 -6 52 -35 59 -25 6 -137 58
-166 76 -26 16 -233 142 -275 166 -22 13 -48 26 -57 30 -10 3 -18 10 -18 15 0
5 -6 9 -13 9 -8 0 -25 9 -38 21 -13 12 -43 34 -65 50 l-42 28 -23 -44z m171
-137 c30 -16 57 -33 60 -37 3 -4 28 -20 56 -36 67 -37 81 -59 54 -82 -11 -10
-20 -22 -20 -28 0 -6 -11 -26 -25 -45 -14 -19 -25 -31 -25 -27 0 4 -9 -2 -20
-13 -64 -64 -173 -58 -242 12 -54 55 -81 164 -57 224 7 16 13 35 15 43 1 7 15
26 29 41 l27 28 47 -25 c25 -14 71 -39 101 -55z m336 -199 c54 -28 111 -64
127 -80 31 -33 28 -47 -21 -97 -83 -85 -206 -57 -244 56 -13 38 -13 50 0 100
11 46 24 69 38 72 0 0 45 -23 100 -51z"/>
<path d="M395 7880 c-30 -20 -54 -70 -56 -119 -2 -30 3 -54 29 -163 6 -22 6
-40 0 -46 -10 -10 -58 -4 -58 8 0 12 -52 32 -61 23 -5 -5 -11 -22 -14 -38 -6
-27 -3 -32 27 -45 18 -8 40 -15 48 -15 34 -1 98 -26 115 -45 11 -13 27 -18 46
-16 35 4 151 -51 196 -93 18 -16 41 -32 52 -36 16 -5 21 0 26 27 13 77 12 83
-16 84 -31 1 -69 10 -106 26 -15 6 -30 12 -33 13 -24 6 -123 62 -144 82 -41
38 -60 106 -60 212 0 36 5 48 27 65 55 44 133 28 267 -54 85 -52 150 -107 150
-126 0 -24 18 -25 39 -2 12 12 21 34 21 48 0 21 -9 31 -42 48 -50 25 -101 55
-108 63 -3 3 -25 16 -50 30 -25 13 -47 27 -50 30 -3 3 -31 18 -62 32 -68 32
-138 35 -183 7z"/>
<path d="M9031 7448 c-30 -27 -66 -57 -80 -66 -28 -18 -143 -103 -151 -113 -3
-3 -12 -10 -21 -15 -9 -5 -34 -23 -55 -41 -22 -18 -68 -56 -104 -85 -36 -29
-70 -57 -76 -63 -6 -5 -42 -37 -79 -70 -138 -121 -183 -163 -335 -315 -145
-146 -259 -268 -326 -350 -16 -19 -34 -39 -40 -45 -6 -5 -28 -32 -50 -60 -21
-27 -46 -57 -54 -66 -19 -22 -28 -34 -65 -84 -17 -22 -32 -42 -36 -45 -3 -3
-32 -41 -65 -85 -32 -44 -61 -82 -64 -85 -3 -3 -9 -13 -15 -22 -19 -31 -89
-133 -95 -138 -3 -3 -51 -77 -106 -165 -121 -192 -231 -390 -348 -624 l-87
-174 2 -76 c2 -93 6 -106 25 -86 8 7 14 17 14 22 0 4 27 44 60 87 63 86 71 89
150 71 65 -14 216 -106 300 -182 19 -18 38 -33 42 -33 4 0 17 -10 30 -23 13
-12 39 -34 58 -47 19 -14 42 -30 50 -37 8 -6 51 -40 95 -74 44 -35 82 -66 85
-69 3 -3 23 -21 45 -40 136 -117 190 -167 289 -266 61 -61 134 -137 161 -168
28 -32 65 -74 83 -93 17 -20 32 -39 32 -42 0 -3 15 -22 33 -42 17 -19 48 -58
66 -85 19 -27 38 -51 41 -54 14 -12 150 -220 150 -229 0 -6 5 -11 10 -11 6 0
10 -7 10 -15 0 -8 5 -15 10 -15 6 0 10 -4 10 -9 0 -5 26 -53 58 -108 105 -177
210 -412 248 -553 26 -99 65 -250 68 -270 2 -14 5 -25 6 -25 2 0 3 -9 14 -90
10 -65 13 -85 20 -115 8 -35 16 -80 20 -115 12 -95 19 -165 20 -202 0 -24 3
-43 6 -43 5 0 9 -56 16 -255 2 -66 4 -122 5 -125 1 -3 0 -16 -1 -30 -1 -14 1
-22 5 -18 4 3 6 80 5 170 -1 182 -3 214 -25 483 -8 96 -16 169 -20 176 -4 6
28 54 55 81 31 31 159 174 181 203 13 17 26 32 29 35 4 3 30 37 58 75 28 39
57 77 64 85 18 21 58 80 58 86 0 3 9 14 20 26 11 12 20 28 20 35 0 7 5 13 10
13 6 0 16 12 23 28 6 15 14 29 17 32 12 10 120 198 120 208 0 6 3 12 8 14 4 2
34 57 67 123 33 66 62 122 65 125 23 21 128 290 145 369 2 9 18 63 35 121 34
113 40 134 45 165 2 11 4 20 5 20 1 0 8 27 16 60 7 33 16 69 19 80 14 58 24
112 31 170 7 54 12 80 14 80 2 0 5 20 14 110 4 39 9 84 12 100 24 164 34 586
20 795 -9 120 -23 265 -31 320 -2 14 -9 61 -15 105 -7 44 -14 89 -16 100 -2
11 -6 36 -9 55 -3 19 -7 46 -11 60 -3 14 -7 36 -8 50 -3 22 -9 52 -31 160 -18
92 -46 202 -79 321 -32 113 -123 317 -184 413 -58 91 -213 256 -329 349 -72
58 -195 128 -343 195 -76 34 -81 33 -139 -20z m139 -337 c0 -6 -4 -12 -8 -15
-5 -3 -9 1 -9 9 0 8 4 15 9 15 4 0 8 -4 8 -9z m232 -1083 c-7 -7 -12 -8 -12
-2 0 14 12 26 19 19 2 -3 -1 -11 -7 -17z m725 -1320 c-3 -8 -6 -5 -6 6 -1 11
2 17 5 13 3 -3 4 -12 1 -19z m-4 -33 c-3 -9 -8 -14 -10 -11 -3 3 -2 9 2 15 9
16 15 13 8 -4z m-1138 -1981 l5 -39 -14 35 c-7 19 -11 39 -9 43 8 13 12 3 18
-39z"/>
<path d="M167 7299 c-20 -12 -23 -64 -4 -76 6 -4 36 -8 64 -10 29 -1 61 -6 70
-11 10 -5 38 -13 63 -18 49 -9 56 -10 68 -14 4 -2 12 -4 17 -5 6 -2 12 -4 15
-5 5 -2 16 -4 55 -14 34 -8 109 -26 128 -31 31 -9 62 -16 87 -21 14 -2 32 -7
40 -11 8 -3 22 -7 30 -9 44 -9 165 -55 168 -64 4 -12 42 -13 58 -2 5 4 9 21 8
37 -2 41 -2 42 -16 43 -7 0 -22 2 -33 5 -11 3 -40 8 -65 12 -25 4 -49 10 -55
13 -5 4 -14 7 -20 8 -5 1 -44 11 -85 22 -41 12 -90 24 -109 27 -19 3 -37 8
-41 10 -3 2 -17 6 -31 9 -13 3 -33 7 -44 10 -121 29 -160 38 -218 55 -37 11
-70 20 -72 20 -3 0 -18 7 -33 15 -19 10 -33 11 -45 5z"/>
<path d="M245 7057 c-60 -60 -130 -124 -155 -141 -49 -33 -50 -37 -30 -78 8
-18 21 -28 35 -28 22 0 55 28 55 47 0 10 100 113 179 185 39 34 42 35 60 20
10 -10 32 -42 49 -72 16 -30 42 -77 57 -103 15 -27 28 -59 29 -70 1 -22 49
-48 62 -34 17 17 4 68 -26 99 -43 45 -113 151 -140 216 -12 28 -29 52 -36 52
-8 0 -14 5 -14 10 0 19 -15 6 -125 -103z"/>
<path d="M152 6755 c-48 -21 -92 -65 -117 -120 -19 -43 -22 -64 -20 -150 1
-86 5 -118 15 -145 1 -3 2 -8 1 -12 0 -5 3 -8 9 -8 5 0 10 -6 10 -14 0 -24 85
-103 142 -132 43 -22 68 -27 128 -28 70 -1 78 1 121 32 73 53 101 117 102 232
1 61 -13 149 -24 156 -5 3 -9 14 -9 25 0 22 -116 146 -127 136 -3 -4 -19 1
-35 9 -58 30 -148 39 -196 19z m213 -86 c48 -22 109 -84 100 -100 -4 -5 -2 -9
3 -9 5 0 9 -10 8 -22 -1 -13 6 -33 15 -46 35 -47 8 -168 -51 -224 -37 -35 -70
-48 -133 -54 -59 -5 -126 27 -191 92 -47 46 -59 80 -61 177 -1 71 51 160 111
192 43 22 145 19 199 -6z"/>
<path d="M459 6134 c-15 -19 -115 -84 -128 -84 -5 0 -16 -6 -23 -12 -16 -16
-64 -42 -195 -107 -85 -42 -103 -55 -103 -73 0 -28 16 -55 26 -45 4 4 12 3 18
-2 7 -6 54 -19 106 -30 128 -28 120 -26 216 -60 160 -57 218 -98 134 -94 -68
3 -104 -42 -114 -142 -11 -107 -20 -133 -58 -159 -26 -19 -90 -21 -121 -4 -63
33 -90 106 -73 195 5 28 4 31 -16 25 -39 -10 -57 -41 -46 -80 39 -139 93 -192
207 -199 117 -8 158 38 166 184 7 122 32 153 106 129 61 -20 93 -133 55 -194
-5 -8 2 -12 23 -12 16 0 36 3 44 6 16 6 14 12 -23 137 -6 21 -29 56 -50 78
-22 22 -37 38 -33 35 15 -13 39 15 41 48 2 28 -1 36 -15 38 -49 4 -59 5 -73
10 -8 3 -42 12 -75 21 -95 24 -179 47 -195 54 -8 3 -23 8 -33 9 -10 2 -34 11
-54 19 -36 15 -37 16 -17 35 48 48 256 162 330 180 65 16 82 74 28 99 -33 15
-39 14 -55 -5z"/>
<path d="M978 5360 c-52 -28 -196 -79 -202 -72 -3 3 -6 0 -6 -6 0 -7 -3 -11
-7 -10 -9 1 -26 -4 -93 -32 -61 -25 -214 -84 -220 -86 -3 0 -17 -6 -33 -12
-51 -21 -150 -52 -168 -52 -28 0 -52 -29 -38 -46 6 -8 8 -14 5 -14 -4 0 -1 -6
6 -14 16 -17 37 -15 68 6 24 16 268 116 300 123 8 2 16 4 18 5 1 2 5 3 10 5 4
1 16 5 27 10 96 39 135 53 135 48 0 -3 6 -1 13 4 18 15 167 65 207 70 88 10
102 25 69 67 -24 31 -41 32 -91 6z"/>
<path d="M439 5068 c0 -2 -2 -19 -4 -38 -3 -33 -6 -48 -20 -110 -3 -14 -7 -36
-10 -50 -11 -60 -15 -76 -31 -129 -9 -31 -20 -61 -24 -66 -19 -23 37 -60 75
-51 22 6 24 11 24 74 0 37 2 78 5 92 34 156 51 217 60 215 18 -4 47 -16 146
-63 52 -25 96 -44 98 -43 2 1 11 -8 21 -21 16 -20 22 -21 45 -10 14 6 26 18
26 26 0 19 -52 56 -80 56 -32 0 -199 68 -236 96 -17 14 -45 24 -62 24 -18 0
-32 -1 -33 -2z"/>
<path d="M800 4796 c-33 -58 -102 -160 -112 -164 -4 -2 -8 -10 -8 -18 0 -8 -4
-14 -10 -14 -5 0 -10 -7 -10 -15 0 -8 -4 -15 -10 -15 -5 0 -10 -4 -10 -10 0
-5 -8 -19 -17 -29 -24 -26 -34 -40 -57 -76 -11 -16 -27 -36 -37 -43 -10 -7
-19 -22 -21 -35 -3 -22 -4 -22 -190 -22 -104 0 -188 -3 -188 -6 0 -17 31 -79
39 -79 6 0 20 4 33 9 13 5 53 12 88 16 36 4 72 8 80 10 9 2 47 6 85 10 38 3
73 9 77 11 4 3 8 1 8 -4 0 -12 46 -8 95 8 21 7 52 14 69 16 62 7 342 7 372 0
39 -9 47 7 28 52 -14 35 -28 38 -84 22 -19 -6 -69 -13 -110 -15 -71 -3 -124
-8 -232 -21 -53 -6 -60 4 -33 42 8 12 12 24 9 26 -2 3 2 11 11 18 8 7 15 17
15 22 0 5 29 50 65 100 36 50 65 95 65 100 0 4 6 8 13 8 16 0 82 78 82 98 0
10 -15 21 -41 28 l-41 12 -23 -42z"/>
<path d="M1036 4792 c-3 -5 5 -17 17 -27 51 -42 97 -85 91 -85 -3 0 8 -11 25
-25 18 -16 28 -32 24 -40 -3 -8 -1 -15 4 -15 5 0 23 -13 39 -29 27 -27 30 -28
47 -14 34 31 22 65 -41 108 -31 22 -60 39 -64 37 -5 -1 -8 5 -8 13 0 8 -5 15
-11 15 -6 0 -18 9 -27 20 -20 23 -89 53 -96 42z"/>
<path d="M1477 4223 c-31 -37 -71 -81 -89 -97 -50 -43 -166 -146 -208 -186
-75 -69 -97 -89 -172 -148 l-76 -61 55 -55 c30 -31 58 -56 63 -56 5 0 21 -12
35 -26 29 -29 99 -62 142 -67 16 -2 34 -7 41 -11 7 -4 12 -4 12 1 0 4 15 7 32
7 40 -2 115 35 145 69 56 66 67 123 39 216 -9 30 -16 56 -16 58 0 1 21 2 48 2
65 -2 108 8 142 33 55 40 76 125 45 178 -8 14 -18 33 -21 43 -3 9 -10 17 -15
17 -5 0 -9 5 -9 10 0 6 -12 23 -26 38 -14 15 -30 39 -36 53 -5 15 -17 29 -26
32 -9 3 -24 8 -33 11 -12 5 -31 -12 -72 -61z m160 -93 c26 -48 26 -108 1 -150
-34 -56 -154 -87 -195 -51 -11 9 -32 23 -48 31 -17 9 -30 23 -30 32 0 19 112
138 169 180 34 24 42 27 59 15 11 -7 30 -33 44 -57z m-303 -176 c9 -3 16 -12
16 -19 0 -7 11 -21 25 -31 33 -25 68 -109 68 -165 0 -121 -159 -210 -285 -159
-45 18 -96 61 -114 95 -13 26 -12 30 18 65 18 21 37 39 41 39 5 1 33 25 63 54
73 71 139 126 151 127 1 0 8 -3 17 -6z"/>
<path d="M2038 4030 c-25 -7 -87 -66 -88 -83 0 -4 -13 -22 -30 -40 -16 -18
-30 -35 -30 -39 0 -4 -6 -13 -13 -20 -33 -33 -114 -127 -137 -157 -23 -31 -80
-100 -106 -127 -5 -6 -26 -30 -45 -54 -41 -50 -101 -112 -155 -160 -44 -40
-48 -60 -19 -87 40 -36 61 -29 88 30 13 30 41 71 61 91 20 21 36 39 36 42 0 2
12 16 28 32 15 16 45 51 67 77 22 26 50 58 63 71 12 12 22 26 22 29 0 3 8 13
18 23 9 10 40 44 67 76 28 33 57 66 66 75 8 9 36 41 62 72 26 31 61 62 77 69
34 14 40 48 14 74 -8 9 -16 16 -17 15 -1 0 -14 -4 -29 -9z"/>
<path d="M1900 3443 c-34 -5 -110 -33 -110 -41 0 -4 -20 -20 -43 -36 -67 -44
-106 -120 -100 -191 4 -42 20 -91 38 -113 26 -34 69 -72 81 -72 7 0 19 -8 26
-17 27 -36 109 -66 188 -69 42 -2 80 2 87 8 7 6 13 8 13 5 0 -3 18 2 39 11 49
22 107 74 145 129 26 40 28 48 24 111 -5 70 -19 102 -69 154 -14 16 -31 28
-38 28 -6 0 -11 4 -11 8 0 11 -83 56 -130 71 -40 12 -103 19 -140 14z m92 -53
c10 0 18 -5 18 -11 0 -7 10 -9 25 -5 51 13 131 -47 166 -124 31 -69 10 -166
-48 -225 -14 -14 -32 -25 -39 -25 -8 0 -14 -4 -14 -8 0 -10 -97 -42 -131 -43
-21 0 -52 5 -69 11 -3 1 -7 2 -10 2 -19 -2 -116 80 -135 114 -47 83 -41 151
21 231 44 58 162 115 189 91 5 -4 17 -8 27 -8z"/>
<path d="M3337 3175 c-15 -27 -17 -44 -6 -51 5 -3 7 -8 5 -12 -2 -4 -7 -25
-11 -47 -8 -46 -13 -70 -15 -70 -1 0 -3 -11 -6 -25 -2 -14 -11 -45 -19 -70
l-15 -45 -102 -1 c-87 -1 -133 -5 -158 -14 -3 -2 -8 -2 -12 -1 -5 0 -8 -4 -8
-11 0 -6 -3 -8 -6 -5 -17 17 -152 -111 -163 -154 -2 -8 -7 -25 -11 -39 -15
-53 -4 -119 27 -158 33 -40 109 -84 135 -78 10 2 20 0 23 -4 6 -9 37 -6 55 5
6 3 10 0 10 -7 0 -8 3 -9 8 -3 4 6 12 11 17 12 6 1 23 5 38 8 23 6 27 4 27
-15 0 -28 -30 -133 -40 -140 -12 -8 -6 -54 8 -63 9 -6 27 0 52 17 35 23 38 29
38 68 -1 24 3 61 8 83 11 54 11 55 14 58 4 6 12 46 16 87 2 25 13 77 24 115
12 39 22 75 24 80 10 43 19 55 40 55 13 0 30 7 37 16 11 14 9 20 -14 40 -22
19 -27 29 -21 47 8 24 12 39 19 77 10 63 45 162 69 197 l27 38 -22 18 c-28 23
-77 19 -92 -8z m-142 -365 c27 -10 57 -35 54 -44 -1 -3 -12 -45 -25 -93 -14
-48 -26 -95 -28 -103 -3 -8 -5 -16 -6 -17 -2 -2 -3 -6 -4 -10 -7 -43 -40 -102
-59 -107 -58 -15 -151 1 -199 36 -83 59 -76 195 14 277 82 74 166 94 253 61z"/>
<path d="M2460 3168 c0 -13 -68 -118 -97 -150 -9 -10 -13 -18 -9 -18 4 0 0 -7
-8 -16 -9 -8 -34 -46 -56 -84 -48 -79 -59 -153 -33 -205 19 -36 26 -42 78 -57
47 -13 88 -11 173 8 35 8 68 12 73 8 11 -6 3 -54 -9 -64 -16 -12 -30 -48 -23
-59 5 -7 22 -15 39 -17 24 -4 32 -1 32 10 0 9 4 16 10 16 5 0 12 12 16 28 19
84 28 106 51 128 14 13 23 30 20 37 -12 33 51 149 125 231 33 36 27 45 -38 57
-35 7 -50 6 -55 -3 -4 -7 -5 -16 -3 -20 3 -5 0 -25 -7 -46 -7 -20 -14 -39 -14
-42 -3 -15 -51 -106 -57 -108 -5 -2 -8 -9 -8 -15 0 -18 -64 -84 -91 -93 -13
-5 -37 -9 -54 -10 -16 -1 -30 -3 -30 -4 0 -1 -26 -4 -57 -6 -36 -3 -58 -1 -58
6 0 5 -7 10 -16 10 -23 0 -45 63 -38 107 6 35 38 111 53 123 3 3 26 34 50 70
51 75 90 120 105 120 6 0 18 5 26 10 12 8 11 12 -8 31 -28 25 -82 37 -82 17z"/>
<path d="M3930 3173 c-34 -13 -51 -44 -56 -101 -2 -31 -6 -73 -9 -92 -13 -97
-18 -136 -18 -147 0 -7 -3 -13 -7 -13 -4 0 -7 -6 -7 -12 0 -36 -17 -149 -40
-283 -14 -82 -27 -158 -27 -167 0 -10 -5 -18 -10 -18 -5 0 -7 -3 -4 -6 3 -3
-3 -30 -13 -60 -26 -74 -15 -97 44 -92 l42 4 2 89 c3 121 5 145 16 145 4 0 6
3 4 8 -3 4 1 43 9 87 8 44 17 91 19 105 2 14 9 54 15 90 7 36 13 76 15 90 2
14 4 25 5 25 1 0 4 14 5 30 2 17 6 41 9 55 4 14 9 41 12 60 3 19 7 47 10 62 2
16 14 46 25 68 21 39 21 42 4 60 -19 21 -21 22 -45 13z"/>
<path d="M3623 2963 c-18 -7 -16 -27 5 -53 14 -18 25 -21 44 -17 35 9 42 33
16 57 -21 20 -40 24 -65 13z"/>
<path d="M7632 2948 c-23 -11 -64 -45 -89 -75 -26 -30 -60 -62 -77 -71 -30
-16 -36 -18 -63 -21 -7 0 -13 -7 -13 -15 0 -7 -11 -25 -25 -40 -26 -29 -24
-62 4 -50 9 3 26 9 39 11 12 3 22 9 22 13 0 4 18 26 41 48 22 23 37 42 32 43
-4 0 1 4 12 8 13 5 23 3 30 -6 14 -19 11 -537 -3 -588 -7 -22 -12 -52 -12 -66
0 -25 2 -26 48 -24 69 2 72 5 56 72 -12 49 -15 82 -13 176 0 6 0 91 0 187 -1
96 1 189 4 205 3 17 7 48 10 70 3 22 7 48 9 58 1 9 12 30 24 47 28 37 17 43
-36 18z"/>
<path d="M5478 2925 c-7 -7 -61 -22 -113 -31 -72 -13 -100 -49 -71 -90 12 -15
16 -16 30 -5 9 7 16 10 16 5 1 -5 11 3 23 18 38 45 105 61 214 49 20 -2 83
-61 99 -93 28 -53 8 -185 -37 -250 -11 -14 -19 -29 -19 -32 0 -9 -29 -43 -95
-110 -99 -100 -155 -143 -169 -129 -3 3 -6 -1 -6 -10 0 -10 -3 -17 -7 -18 -53
-5 -96 -27 -124 -62 -15 -19 -15 -23 -2 -44 11 -16 22 -22 34 -18 10 4 31 8
46 11 15 3 29 7 33 9 14 9 143 19 240 19 106 0 150 -4 183 -19 10 -4 19 -6 20
-4 2 2 10 20 19 40 22 49 11 64 -38 54 -22 -4 -69 -9 -106 -10 -38 -2 -75 -5
-83 -8 -8 -4 -17 -2 -20 3 -4 6 -14 7 -23 2 -14 -7 -74 -9 -119 -3 -12 1 -6
41 7 41 4 0 23 15 42 33 19 17 48 43 64 58 59 52 153 163 180 213 15 28 32 54
38 58 6 4 8 8 3 8 -4 0 0 16 8 37 8 20 13 38 11 40 -2 3 0 18 4 34 5 16 6 29
2 29 -4 0 -8 16 -8 35 -2 43 -39 101 -76 118 -16 6 -28 14 -28 17 0 7 -165 12
-172 5z"/>
<path d="M6245 2920 c-2 -3 -20 -7 -40 -8 -48 -3 -116 -30 -137 -53 -9 -11
-20 -19 -25 -19 -9 0 -23 -21 -64 -95 -52 -96 -73 -185 -70 -295 2 -60 7 -115
11 -115 1 0 5 -14 13 -47 6 -29 63 -118 75 -118 6 0 12 -4 12 -8 0 -5 19 -19
41 -32 32 -17 57 -23 109 -23 36 0 76 5 88 12 11 6 27 8 35 5 9 -3 29 1 45 10
16 8 32 13 34 10 8 -8 131 117 166 168 30 44 60 133 67 202 2 17 4 33 5 36 8
21 -4 91 -25 155 -49 142 -112 203 -219 212 -101 8 -118 8 -121 3z m121 -66
c69 -29 131 -116 153 -215 10 -43 8 -172 -4 -224 -17 -82 -96 -205 -131 -205
-7 0 -14 -5 -16 -11 -2 -6 -22 -13 -43 -15 -22 -1 -53 -6 -70 -10 -75 -19
-153 9 -206 74 -60 72 -83 259 -48 381 11 36 21 74 24 84 10 44 95 158 95 129
0 -4 4 -2 8 5 19 30 173 34 238 7z"/>
<path d="M6910 2913 c-25 -7 -55 -15 -68 -18 -13 -2 -39 -9 -58 -15 -30 -10
-34 -16 -34 -46 0 -36 25 -58 40 -35 4 7 11 13 16 13 5 1 23 12 41 26 35 29
48 33 115 36 118 6 198 -69 192 -179 -4 -59 -30 -143 -51 -167 -9 -10 -13 -18
-10 -18 8 0 5 -4 -81 -99 -31 -36 -66 -72 -76 -80 -10 -9 -26 -23 -35 -31 -9
-8 -29 -23 -45 -34 -24 -15 -30 -16 -38 -5 -8 11 -9 10 -4 -3 3 -11 -2 -22
-14 -28 -11 -6 -20 -8 -20 -5 0 9 -63 -25 -87 -48 -30 -26 -29 -43 2 -63 19
-12 28 -14 38 -5 8 6 17 8 20 5 3 -3 12 -2 19 2 15 10 27 12 83 18 22 2 40 5
40 6 0 6 261 7 270 1 6 -3 16 -6 24 -8 8 -1 26 -5 40 -8 14 -4 23 -3 19 1 -4
4 -4 12 2 18 5 7 12 27 15 45 l6 34 -48 -8 c-26 -4 -82 -9 -123 -11 -247 -11
-240 -12 -240 7 0 9 10 23 23 32 43 28 252 243 258 265 1 4 12 23 24 42 20 33
34 62 41 85 1 6 7 24 12 40 26 90 -13 197 -85 233 -46 23 -157 26 -223 5z"/>
<path d="M3565 2793 c-32 -8 -38 -19 -40 -80 -2 -32 -5 -69 -9 -83 -3 -14 -8
-34 -10 -45 -30 -147 -50 -232 -58 -242 -6 -7 -7 -13 -3 -13 5 0 1 -8 -8 -17
-22 -25 -31 -69 -17 -78 19 -12 92 -7 101 6 4 7 5 22 2 33 -10 42 -5 97 19
201 7 28 13 52 13 55 0 3 7 23 14 45 17 54 20 64 22 73 1 4 10 32 19 62 8 30
16 61 15 69 0 15 -27 21 -60 14z"/>
</g>
</svg>
